<svg width="18" height="20" viewBox="0 0 18 20" fill="none" xmlns="http://www.w3.org/2000/svg">
<path d="M11.7501 14.5833H16.3334L15.0455 13.2954C14.8725 13.1224 14.7354 12.9171 14.6418 12.691C14.5482 12.465 14.5 12.2228 14.5001 11.9782V9.08333C14.5002 7.94569 14.1477 6.83598 13.491 5.90698C12.8344 4.97798 11.9059 4.27538 10.8334 3.89592V3.58333C10.8334 3.0971 10.6403 2.63079 10.2964 2.28697C9.95263 1.94315 9.48631 1.75 9.00008 1.75C8.51385 1.75 8.04754 1.94315 7.70372 2.28697C7.3599 2.63079 7.16675 3.0971 7.16675 3.58333V3.89592C5.03091 4.65125 3.50008 6.689 3.50008 9.08333V11.9791C3.50008 12.4723 3.30391 12.9462 2.95466 13.2954L1.66675 14.5833H6.25008M11.7501 14.5833H6.25008M11.7501 14.5833V15.5C11.7501 16.2293 11.4603 16.9288 10.9446 17.4445C10.4289 17.9603 9.72943 18.25 9.00008 18.25C8.27074 18.25 7.57126 17.9603 7.05554 17.4445C6.53981 16.9288 6.25008 16.2293 6.25008 15.5V14.5833" stroke="#FAFAFA" stroke-width="2" stroke-linecap="round" stroke-linejoin="round"/>
</svg>
