<svg width="18" height="18" viewBox="0 0 18 18" fill="none" xmlns="http://www.w3.org/2000/svg">
<path d="M7.22222 10.778L9 9.00024M9 9.00024L10.7778 7.22247M9 9.00024L7.22222 7.22247M9 9.00024L10.7778 10.778M17 9.00024C17 10.0508 16.7931 11.0911 16.391 12.0617C15.989 13.0323 15.3997 13.9142 14.6569 14.6571C13.914 15.4 13.0321 15.9892 12.0615 16.3913C11.0909 16.7933 10.0506 17.0002 9 17.0002C7.94943 17.0002 6.90914 16.7933 5.93853 16.3913C4.96793 15.9892 4.08601 15.4 3.34315 14.6571C2.60028 13.9142 2.011 13.0323 1.60896 12.0617C1.20693 11.0911 1 10.0508 1 9.00024C1 6.87851 1.84285 4.84368 3.34315 3.34339C4.84344 1.8431 6.87827 1.00024 9 1.00024C11.1217 1.00024 13.1566 1.8431 14.6569 3.34339C16.1571 4.84368 17 6.87851 17 9.00024Z" stroke="#F87171" stroke-linecap="round" stroke-linejoin="round"/>
</svg>
