<svg width="19" height="19" viewBox="0 0 19 19" fill="none" xmlns="http://www.w3.org/2000/svg">
<path d="M8.08341 3.58328H3.50008C3.01385 3.58328 2.54754 3.77643 2.20372 4.12025C1.8599 4.46407 1.66675 4.93038 1.66675 5.41661V15.4999C1.66675 15.9862 1.8599 16.4525 2.20372 16.7963C2.54754 17.1401 3.01385 17.3333 3.50008 17.3333H13.5834C14.0696 17.3333 14.536 17.1401 14.8798 16.7963C15.2236 16.4525 15.4167 15.9862 15.4167 15.4999V10.9166M14.1206 2.28711C14.2897 2.11201 14.492 1.97234 14.7157 1.87626C14.9393 1.78018 15.1799 1.7296 15.4233 1.72749C15.6668 1.72537 15.9082 1.77176 16.1335 1.86394C16.3588 1.95612 16.5635 2.09225 16.7356 2.26439C16.9078 2.43652 17.0439 2.64122 17.1361 2.86653C17.2283 3.09184 17.2747 3.33325 17.2725 3.57668C17.2704 3.82011 17.2199 4.06068 17.1238 4.28435C17.0277 4.50803 16.888 4.71033 16.7129 4.87945L8.84241 12.7499H6.25008V10.1576L14.1206 2.28711Z" stroke="#A1A1AA" stroke-width="2" stroke-linecap="round" stroke-linejoin="round"/>
</svg>
