<svg width="20" height="20" viewBox="0 0 20 20" fill="none" xmlns="http://www.w3.org/2000/svg">
<path d="M9.16658 4.16664H4.99992C4.55789 4.16664 4.13397 4.34223 3.82141 4.65479C3.50885 4.96736 3.33325 5.39128 3.33325 5.83331V15C3.33325 15.442 3.50885 15.8659 3.82141 16.1785C4.13397 16.491 4.55789 16.6666 4.99992 16.6666H14.1666C14.6086 16.6666 15.0325 16.491 15.3451 16.1785C15.6577 15.8659 15.8333 15.442 15.8333 15V10.8333M14.6549 2.98831C14.8087 2.82912 14.9926 2.70215 15.1959 2.6148C15.3993 2.52746 15.618 2.48148 15.8392 2.47956C16.0605 2.47763 16.28 2.5198 16.4848 2.6036C16.6897 2.6874 16.8758 2.81116 17.0322 2.96765C17.1887 3.12414 17.3125 3.31022 17.3963 3.51505C17.4801 3.71988 17.5223 3.93934 17.5203 4.16064C17.5184 4.38194 17.4724 4.60064 17.3851 4.80398C17.2977 5.00732 17.1708 5.19123 17.0116 5.34497L9.85658 12.5H7.49992V10.1433L14.6549 2.98831Z" stroke="#52525B" stroke-width="2" stroke-linecap="round" stroke-linejoin="round"/>
</svg>
